<?xml version="1.0" encoding="utf-8"?>
<!-- Generator: Adobe Illustrator 22.0.1, SVG Export Plug-In . SVG Version: 6.00 Build 0)  -->
<svg version="1.1" id="Layer_1" xmlns="http://www.w3.org/2000/svg" xmlns:xlink="http://www.w3.org/1999/xlink" x="0px" y="0px"
	 viewBox="0 0 595.3 841.9" style="enable-background:new 0 0 595.3 841.9;" xml:space="preserve">
<style type="text/css">
	.st0{fill:#172034;}
	.st1{fill:#EA6D9F;}
	.st2{fill:#C80967;}
</style>
<g>
	<polygon class="st0" points="311.4,448.3 283.9,448.3 270.1,424.4 242.5,424.4 256.3,448.3 270.1,472.1 297.6,472.1 325.2,472.1 	
		"/>
	<polygon class="st1" points="339,400.5 325.2,376.6 311.4,400.5 325.2,424.4 311.4,448.3 325.2,472.1 339,448.3 352.8,424.4 	"/>
	<polygon class="st2" points="325.2,424.4 297.6,424.4 283.9,448.3 311.4,448.3 	"/>
	<polygon class="st1" points="297.6,424.4 283.9,400.5 270.1,424.4 283.9,448.3 	"/>
	<polygon class="st2" points="297.6,376.6 270.1,376.6 256.3,400.5 242.5,424.4 270.1,424.4 283.9,400.5 311.4,400.5 325.2,376.6 	
		"/>
	<polygon class="st0" points="325.2,424.4 297.6,424.4 283.9,400.5 311.4,400.5 	"/>
</g>
</svg>
